<svg width="32" height="32" viewBox="0 0 32 32" fill="none" xmlns="http://www.w3.org/2000/svg">
<path d="M30.2235 19.5558C29.3346 15.4669 25.4235 12.8003 21.3346 13.6892C17.2457 14.578 14.5791 18.4892 15.468 22.578C16.3569 26.6669 20.268 29.3336 24.3569 28.4447C27.3791 27.7336 29.3346 25.9558 30.2235 22.9336C30.4013 22.578 30.4013 22.0447 30.4013 21.6892V20.6225C30.2235 20.2669 30.2235 19.9114 30.2235 19.5558ZM26.8457 21.3336C26.668 21.6892 26.4902 21.8669 26.1346 21.8669C25.068 21.8669 23.8235 21.8669 22.7569 21.8669C22.2235 21.8669 21.868 21.5114 21.868 21.1558C21.868 20.0892 21.868 18.8447 21.868 17.778C21.868 17.2447 22.2235 16.8892 22.7569 16.8892C23.2902 16.8892 23.6457 17.2447 23.6457 17.778C23.6457 18.4892 23.6457 19.2003 23.6457 19.9114V20.2669C24.5346 20.2669 25.2457 20.2669 26.1346 20.2669C26.668 20.2669 27.2013 20.8003 26.8457 21.3336Z" fill="#CB1B5B"/>
<path d="M1.77734 8.5332V24.1776C1.77734 24.8888 2.1329 25.2443 2.84401 25.2443H14.5773C14.5773 25.0665 14.3996 25.0665 14.3996 24.8888C13.8662 23.6443 13.5107 22.3999 13.5107 21.1554C13.5107 20.2665 13.6885 19.3776 13.8662 18.4888C13.8662 18.4888 13.8662 18.311 13.8662 18.1332C13.5107 17.9554 13.5107 17.7776 13.6885 17.4221C13.8662 17.0665 14.044 16.8888 14.3996 16.8888H14.5773C14.9329 16.3554 15.2885 15.8221 15.4662 15.2888H14.3996C13.8662 15.2888 13.5107 14.9332 13.5107 14.3999C13.5107 13.8665 13.8662 13.511 14.3996 13.511C14.7551 13.511 15.2885 13.511 15.644 13.511C16.1773 13.511 16.5329 13.511 16.7107 14.0443C18.3107 12.7999 19.9107 12.0888 21.8662 11.911C21.5107 11.911 21.3329 11.911 20.9773 11.911C20.444 11.911 20.0885 11.5554 20.0885 11.0221C20.0885 10.4888 20.444 10.1332 20.9773 10.1332H22.3996C22.9329 10.1332 23.2885 10.311 23.4662 10.6665C23.644 11.0221 23.4662 11.3776 22.9329 11.7332C25.0662 11.7332 26.844 12.4443 28.444 13.8665V8.5332H1.77734ZM9.42179 21.8665C8.88845 21.8665 8.35512 21.8665 7.82179 21.8665C7.28845 21.8665 6.9329 21.511 6.9329 20.9776C6.9329 20.6221 7.28845 20.2665 7.82179 20.0888C8.17734 20.0888 8.35512 20.0888 8.71068 20.0888C8.88845 20.0888 9.24401 20.0888 9.59957 20.0888C10.1329 20.0888 10.4885 20.4443 10.4885 20.9776C10.1329 21.511 9.77734 21.8665 9.42179 21.8665ZM9.42179 18.4888C9.06623 18.4888 8.88845 18.4888 8.5329 18.4888C8.17734 18.4888 7.99957 18.4888 7.64401 18.4888C7.11068 18.4888 6.75512 18.1332 6.75512 17.5999C6.75512 17.2443 7.11068 16.8888 7.64401 16.711C8.17734 16.711 8.71068 16.711 9.42179 16.711C9.95512 16.711 10.3107 17.0665 10.3107 17.5999C10.1329 18.1332 9.77734 18.4888 9.42179 18.4888ZM9.42179 15.111H7.64401C7.11068 15.111 6.75512 14.7554 6.75512 14.2221C6.75512 13.6888 7.11068 13.3332 7.64401 13.3332C8.17734 13.3332 8.71068 13.3332 9.24401 13.3332C9.77734 13.511 10.1329 13.8665 10.1329 14.3999C10.1329 14.7554 9.77734 15.111 9.42179 15.111ZM9.42179 11.911H7.64401C7.11068 11.911 6.75512 11.5554 6.75512 11.0221C6.75512 10.4888 7.11068 10.1332 7.64401 10.1332C7.99957 10.1332 8.17734 10.1332 8.5329 10.1332H9.42179C9.77734 10.1332 10.1329 10.4888 10.1329 11.0221C10.1329 11.3776 9.77734 11.7332 9.42179 11.911ZM15.9996 11.911H14.3996C13.8662 11.911 13.5107 11.5554 13.5107 11.0221C13.5107 10.4888 13.8662 10.1332 14.3996 10.1332C14.9329 10.1332 15.4662 10.1332 15.9996 10.1332C16.5329 10.1332 16.8885 10.4888 16.8885 11.0221C16.8885 11.3776 16.5329 11.7332 15.9996 11.911Z" fill="#CB1B5B"/>
<path d="M28.6218 2.66672V6.93339H1.77734V2.8445C1.77734 2.13339 2.1329 1.77783 2.84401 1.77783H6.9329C6.9329 2.66672 6.9329 3.37783 6.9329 4.26672C6.9329 4.62228 7.11068 4.97783 7.46623 5.15561C7.99957 5.33339 8.5329 4.97783 8.5329 4.26672C8.5329 3.37783 8.5329 2.66672 8.5329 1.77783C12.9773 1.77783 17.4218 1.77783 21.8662 1.77783V4.26672C21.8662 4.62228 22.044 4.97783 22.3996 5.15561C22.9329 5.33339 23.644 4.97783 23.644 4.26672C23.644 3.37783 23.644 2.66672 23.644 1.77783H27.7329C28.2662 1.77783 28.6218 2.13339 28.6218 2.66672Z" fill="#CB1B5B"/>
</svg>
