<svg width="32" height="32" viewBox="0 0 32 32" fill="none" xmlns="http://www.w3.org/2000/svg">
<path d="M16.001 4.97779H21.1565V3.91112C21.1565 2.84446 20.2676 1.95557 19.201 1.95557H6.0454C4.97873 1.95557 4.08984 2.84446 4.08984 3.91112V27.9111C4.08984 28.9778 4.97873 29.8667 6.0454 29.8667H19.201C20.2676 29.8667 21.1565 28.9778 21.1565 27.9111V25.2445H19.3787C18.4898 25.2445 17.7787 24.5333 17.7787 23.6445V17.7778H17.601C17.4232 17.7778 17.2454 17.7778 17.0676 17.6C16.7121 17.6 16.5343 17.0667 16.5343 16.7111V15.8222H16.001C14.9343 15.8222 14.2232 14.9333 14.2232 14.0445V6.93334C14.0454 5.86668 14.9343 4.97779 16.001 4.97779ZM15.1121 18.6667V21.1556C15.1121 21.6889 14.7565 22.0445 14.2232 22.0445H12.9787V19.0222C12.9787 18.8445 12.801 18.8445 12.801 18.8445C12.6232 18.8445 12.6232 18.8445 12.6232 19.0222V22.0445H8.17873V19.0222C8.17873 18.8445 8.00095 18.8445 8.00095 18.8445C7.82318 18.8445 7.82318 18.8445 7.82318 19.0222V22.0445H6.57873C6.0454 22.0445 5.68984 21.6889 5.68984 21.1556V18.6667C5.68984 16.7111 7.28984 15.2889 9.06762 15.2889H11.7343C13.6898 15.2889 15.1121 16.8889 15.1121 18.6667ZM8.00095 11.7333C8.00095 10.3111 9.06762 9.24446 10.4898 9.24446C11.9121 9.24446 12.9787 10.3111 12.9787 11.7333C12.801 13.1556 11.7343 14.2222 10.3121 14.2222C9.06762 14.2222 8.00095 13.1556 8.00095 11.7333ZM8.53429 4.44446C8.35651 4.44446 8.00096 4.44446 7.82318 4.0889C7.46762 3.73334 7.28984 3.37779 7.28984 3.02223V2.31112C7.28984 2.13334 7.46762 2.13334 7.46762 2.13334C7.6454 2.13334 7.6454 2.31112 7.6454 2.31112V3.02223C7.6454 3.20001 7.6454 3.55557 8.00095 3.73334C8.17873 3.91112 8.35651 3.91112 8.53429 3.91112H16.3565C16.3565 3.91112 16.8898 3.91112 17.0676 3.55557C17.2454 3.37779 17.2454 3.20001 17.2454 3.02223V2.31112C17.2454 2.13334 17.4232 2.13334 17.4232 2.13334L17.7787 2.31112V3.02223C17.7787 3.20001 17.7787 3.55557 17.4232 3.73334C17.0676 4.26668 16.5343 4.26668 16.3565 4.44446H8.53429Z" fill="#98969D"/>
<path d="M27.9124 16.8887H19.3791C19.0235 16.8887 18.668 17.2442 18.668 17.5998V23.4664C18.668 23.822 19.0235 24.1776 19.3791 24.1776H24.3569L26.3124 25.9553C26.4902 25.9553 26.668 25.9553 26.668 25.7776V24.1776H27.9124C28.268 24.1776 28.6235 23.822 28.6235 23.4664V17.7776C28.6235 17.2442 28.268 16.8887 27.9124 16.8887ZM26.668 21.6887H22.2235C22.0457 21.6887 21.868 21.5109 21.868 21.3331C21.868 21.1553 22.0457 20.9776 22.2235 20.9776H26.668C26.8457 20.9776 27.0235 21.1553 27.0235 21.3331C27.0235 21.5109 26.8457 21.6887 26.668 21.6887ZM26.668 19.9109H20.8013C20.6235 19.9109 20.4457 19.7331 20.4457 19.5553C20.4457 19.3776 20.6235 19.1998 20.8013 19.1998H26.668C26.8457 19.1998 27.0235 19.3776 27.0235 19.5553C27.0235 19.7331 26.8457 19.9109 26.668 19.9109Z" fill="#98969D"/>
<path d="M22.4027 10.3112L20.9805 11.3779V9.6001L22.4027 10.3112Z" fill="#98969D"/>
<path d="M26.1355 5.8667H16.0022C15.4688 5.8667 15.1133 6.22225 15.1133 6.75559V13.8667C15.1133 14.4 15.4688 14.7556 16.0022 14.7556H17.4244V16.7111C17.4244 16.8889 17.6022 16.8889 17.7799 16.8889L20.0911 14.9334H26.1355C26.6688 14.9334 27.0244 14.5778 27.0244 14.0445V6.93337C27.0244 6.40003 26.6688 5.8667 26.1355 5.8667ZM21.3355 13.5111C19.5577 13.5111 18.1355 12.0889 18.1355 10.3111C18.1355 8.53337 19.5577 7.11114 21.3355 7.11114C23.1133 7.11114 24.5355 8.53337 24.5355 10.3111C24.3577 12.0889 22.9355 13.5111 21.3355 13.5111ZM21.3355 7.64448C19.9133 7.64448 18.6688 8.88892 18.6688 10.3111C18.6688 11.7334 19.9133 12.9778 21.3355 12.9778C22.7577 12.9778 24.0022 11.7334 24.0022 10.3111C24.0022 8.88892 22.7577 7.64448 21.3355 7.64448ZM22.5799 10.6667L21.1577 11.5556H20.9799H20.8022C20.6244 11.5556 20.6244 11.3778 20.6244 11.2V9.42226C20.6244 9.24448 20.8022 9.0667 20.8022 9.0667C20.9799 9.0667 21.1577 9.0667 21.1577 9.0667L22.5799 9.95559C22.7577 9.95559 22.7577 10.1334 22.7577 10.3111C22.7577 10.4889 22.7577 10.6667 22.5799 10.6667Z" fill="#98969D"/>
<path d="M26.1355 5.8667H16.0022C15.4688 5.8667 15.1133 6.22225 15.1133 6.75559V13.8667C15.1133 14.4 15.4688 14.7556 16.0022 14.7556H17.4244V16.7111C17.4244 16.8889 17.6022 16.8889 17.7799 16.8889L20.0911 14.9334H26.1355C26.6688 14.9334 27.0244 14.5778 27.0244 14.0445V6.93337C27.0244 6.40003 26.6688 5.8667 26.1355 5.8667ZM21.3355 13.5111C19.5577 13.5111 18.1355 12.0889 18.1355 10.3111C18.1355 8.53337 19.5577 7.11114 21.3355 7.11114C23.1133 7.11114 24.5355 8.53337 24.5355 10.3111C24.3577 12.0889 22.9355 13.5111 21.3355 13.5111ZM21.3355 7.64448C19.9133 7.64448 18.6688 8.88892 18.6688 10.3111C18.6688 11.7334 19.9133 12.9778 21.3355 12.9778C22.7577 12.9778 24.0022 11.7334 24.0022 10.3111C24.0022 8.88892 22.7577 7.64448 21.3355 7.64448ZM22.5799 10.6667L21.1577 11.5556H20.9799H20.8022C20.6244 11.5556 20.6244 11.3778 20.6244 11.2V9.42226C20.6244 9.24448 20.8022 9.0667 20.8022 9.0667C20.9799 9.0667 21.1577 9.0667 21.1577 9.0667L22.5799 9.95559C22.7577 9.95559 22.7577 10.1334 22.7577 10.3111C22.7577 10.4889 22.7577 10.6667 22.5799 10.6667Z" fill="#98969D"/>
</svg>
