<svg width="32" height="32" viewBox="0 0 32 32" fill="none" xmlns="http://www.w3.org/2000/svg">
<path d="M9.33288 30.4177C8.71066 30.2577 8.15955 29.9732 7.89288 29.351C7.75066 29.031 7.66177 28.6755 7.66177 28.3199C7.64399 20.1066 7.64399 11.911 7.66177 3.69768C7.66177 2.43545 8.49733 1.61768 9.77733 1.61768C13.9373 1.61768 18.0973 1.61768 22.2573 1.61768C23.5729 1.61768 24.3907 2.43545 24.3907 3.75101C24.3907 7.50212 24.3907 11.271 24.3907 15.0221C24.3907 19.431 24.3907 23.8399 24.3907 28.2666C24.3907 29.1377 24.0707 29.8132 23.2707 30.2043C23.0929 30.2932 22.8973 30.3288 22.7195 30.3999C18.2573 30.4177 13.7951 30.4177 9.33288 30.4177ZM23.0218 26.8088C23.0218 19.431 23.0218 12.0888 23.0218 4.74656C18.3462 4.74656 13.6884 4.74656 9.03066 4.74656C9.03066 12.1066 9.03066 19.4666 9.03066 26.8088C13.7062 26.8088 18.3462 26.8088 23.0218 26.8088ZM16.9951 28.4799C16.9951 27.9466 16.5684 27.5021 16.0529 27.5021C15.5195 27.4843 15.0751 27.911 15.0751 28.4443C15.0751 28.9955 15.5018 29.4399 16.0351 29.4399C16.5507 29.4399 16.9951 29.0132 16.9951 28.4799ZM15.9995 3.50212C16.6573 3.50212 17.3151 3.50212 17.9551 3.50212C18.1329 3.50212 18.2929 3.48434 18.2929 3.27101C18.2929 3.05768 18.1329 3.0399 17.9551 3.0399C16.6573 3.0399 15.3773 3.0399 14.0795 3.0399C13.9018 3.0399 13.7418 3.05768 13.7418 3.27101C13.7418 3.48434 13.9195 3.50212 14.0795 3.50212C14.7373 3.50212 15.3595 3.50212 15.9995 3.50212Z" fill="#98969D"/>
<path d="M21.4576 23.3245C17.8309 23.3245 14.2221 23.3245 10.5954 23.3245C10.3821 23.2178 10.2754 23.0578 10.2754 22.8089C10.2754 18.1156 10.2754 13.4223 10.2754 8.72893C10.2754 8.39116 10.4532 8.21338 10.7909 8.21338C13.2265 8.21338 15.6443 8.21338 18.0798 8.21338C18.1332 8.21338 18.1865 8.21338 18.2398 8.21338C18.2398 8.28449 18.2398 8.33782 18.2398 8.39116C18.2398 9.33338 18.2398 10.2756 18.2398 11.2178C18.2398 11.5734 18.3998 11.7334 18.7554 11.7334C19.6976 11.7334 20.6576 11.7334 21.5998 11.7334C21.6532 11.7334 21.7065 11.7334 21.7776 11.7334C21.7776 11.8045 21.7776 11.8756 21.7776 11.9289C21.7776 15.52 21.7776 19.1112 21.7776 22.7023C21.7954 23.0045 21.7243 23.2178 21.4576 23.3245ZM14.6487 13.6356C14.2932 13.28 13.9909 12.9778 13.6709 12.6578C13.6709 12.6578 13.6887 12.6578 13.7065 12.6578C14.4709 12.6045 15.0221 12.0178 14.9865 11.2889C14.9687 10.5423 14.3821 9.99116 13.6354 9.99116C13.2798 9.99116 12.9421 9.99116 12.5865 9.99116C12.2132 9.99116 12.0532 10.1512 12.0532 10.5245C12.0532 11.5734 12.0532 12.6045 12.0532 13.6534C12.0532 13.9023 12.0532 14.1334 12.0532 14.3823C12.0532 14.6134 12.2309 14.7912 12.4621 14.8089C12.6754 14.8267 12.8709 14.6845 12.9243 14.4534C12.9421 14.4 12.9421 14.3289 12.9421 14.2578C12.9421 13.92 12.9421 13.5823 12.9421 13.2445C13.2798 13.5823 13.6176 13.92 13.9376 14.24C13.7598 14.4178 13.5821 14.6134 13.3865 14.8089C13.2621 14.9334 13.2087 15.0934 13.2621 15.2712C13.3332 15.6089 13.7243 15.6978 13.9909 15.4667C14.1865 15.2712 14.3821 15.0756 14.5954 14.88C14.7909 15.0756 14.9865 15.2712 15.1643 15.4489C15.2887 15.5734 15.4309 15.6267 15.5909 15.5912C15.9465 15.52 16.0532 15.1112 15.8043 14.8445C15.6265 14.6312 15.4132 14.4534 15.2354 14.2756C15.4132 14.08 15.5909 13.9023 15.7687 13.7245C15.8932 13.6 15.9465 13.4578 15.9109 13.2978C15.8221 12.96 15.4132 12.8356 15.1643 13.0667C14.9687 13.2623 14.8087 13.4578 14.6487 13.6356ZM16.0354 17.1378C15.7332 17.1378 15.4487 17.1378 15.1465 17.1378C14.2754 17.1378 13.3865 17.1378 12.5154 17.1378C12.2665 17.1378 12.0887 17.2978 12.0532 17.5289C12.0354 17.7423 12.1776 17.9556 12.4087 18.0089C12.4621 18.0267 12.5332 18.0267 12.6043 18.0267C14.8265 18.0267 17.0487 18.0267 19.2887 18.0267C19.3954 18.0267 19.5021 18.0267 19.5909 18.0267C19.7865 18.0089 19.9109 17.92 19.9998 17.76C20.1243 17.4578 19.9109 17.1556 19.5554 17.1556C18.3643 17.1378 17.1909 17.1378 16.0354 17.1378ZM14.5776 18.8978C13.8843 18.8978 13.2087 18.8978 12.5154 18.8978C12.3198 18.8978 12.1598 18.9867 12.0887 19.1645C11.9465 19.4667 12.1776 19.7867 12.5332 19.7867C13.9021 19.7867 15.2532 19.7867 16.6221 19.7867C16.9243 19.7867 17.1376 19.6089 17.1376 19.3423C17.1376 19.0756 16.9421 18.8978 16.6398 18.8978C15.9465 18.8978 15.2532 18.8978 14.5776 18.8978ZM18.7021 20.6756C18.4176 20.6756 18.1154 20.6756 17.8309 20.6756C17.5643 20.6756 17.3509 20.8712 17.3509 21.12C17.3509 21.3689 17.5465 21.5645 17.8132 21.5645C18.3821 21.5645 18.9687 21.5645 19.5376 21.5645C19.8043 21.5645 19.9998 21.3689 19.9998 21.12C19.9998 20.8712 19.8043 20.6756 19.5198 20.6756C19.2532 20.6756 18.9865 20.6756 18.7021 20.6756Z" fill="#98969D"/>
<path d="M21.4754 10.8802C20.7109 10.8802 19.9287 10.8802 19.1465 10.8802C19.1465 10.0979 19.1465 9.31571 19.1465 8.55127C19.9109 9.31571 20.6932 10.0979 21.4754 10.8802Z" fill="#98969D"/>
<path d="M12.9414 10.8799C13.2081 10.8799 13.457 10.8799 13.7059 10.8799C13.937 10.8977 14.1147 11.0932 14.1147 11.3243C14.1147 11.5554 13.937 11.751 13.7059 11.7688C13.457 11.7865 13.2081 11.7688 12.9414 11.7688C12.9414 11.4665 12.9414 11.1821 12.9414 10.8799Z" fill="#98969D"/>
</svg>
