<svg width="24" height="24" viewBox="0 0 24 24" fill="none" xmlns="http://www.w3.org/2000/svg">
<path d="M16.9462 10.8398C14.1195 10.8398 11.8262 13.1332 11.8262 15.9598C11.8262 18.7865 14.1195 21.0798 16.9462 21.0798C19.7728 21.0798 22.0662 18.7865 22.0662 15.9598C22.0662 13.1332 19.7728 10.8398 16.9462 10.8398ZM18.5862 18.0798H14.0662C13.7462 18.0798 13.4795 17.8132 13.4795 17.4932C13.4795 17.1598 13.7462 16.8932 14.0662 16.8932H18.5462C18.8662 16.8798 19.1728 16.6398 19.2262 16.3332C19.2528 16.1732 19.1995 15.9998 19.0795 15.8398C18.9995 15.7465 18.8128 15.5598 18.4928 15.5332H15.6128L15.7195 15.6132C15.9462 15.7865 15.9862 16.1198 15.8128 16.3465C15.7062 16.4798 15.5595 16.5465 15.3995 16.5465C15.2795 16.5465 15.1728 16.5065 15.0795 16.4398L13.6795 15.3465C13.5595 15.2532 13.4795 15.1065 13.4795 14.9465C13.4795 14.7865 13.5328 14.6398 13.6528 14.5332L15.0395 13.3198C15.2528 13.1332 15.5862 13.1465 15.7728 13.3598C15.9595 13.5865 15.9462 13.9198 15.7328 14.1065L15.4395 14.3598H18.5462C19.1595 14.3998 19.6662 14.6798 20.0128 15.1198C20.3328 15.5198 20.4662 16.0398 20.3995 16.5198C20.2528 17.3732 19.4928 18.0265 18.5862 18.0798Z" fill="#CB1B5B"/>
<path d="M11.2392 17.2266C7.13255 17.3066 4.11922 17.2933 3.43922 17.2266C2.87922 17.1599 2.62589 16.9199 2.55922 16.8666C2.33255 16.6399 2.19922 16.3333 2.19922 15.9866V6.91992H16.3726C16.3726 7.99992 16.3726 9.07992 16.3726 10.1599C16.0259 10.1999 13.7459 10.4533 12.2259 12.5066C10.6926 14.5999 11.1726 16.8933 11.2392 17.2266Z" fill="#CB1B5B"/>
<path d="M17.0808 6.4406H1.49414V3.54727C1.49414 3.21393 1.76081 2.94727 2.09414 2.94727H16.4675C16.8008 2.94727 17.0675 3.21393 17.0675 3.54727V6.4406H17.0808Z" fill="#CB1B5B"/>
</svg>
