<svg width="24" height="24" viewBox="0 0 24 24" fill="none" xmlns="http://www.w3.org/2000/svg">
<path d="M5.31997 14.0267C5.31997 15.2401 5.30664 16.4534 5.30664 17.6667C5.33331 18.2267 5.46664 19.5334 6.38664 20.7067C6.83997 21.2801 7.33331 21.6401 7.58664 21.8001C8.21331 22.2134 8.83997 22.4267 9.31997 22.5334C11.52 23.0001 13.24 22.7601 14.2133 22.5334C15.3066 22.2801 16.36 22.0267 17.3066 21.1334C18.4 20.0934 18.7333 18.8134 18.84 18.2267C18.88 16.5067 18.92 14.7734 18.96 13.0534C18.9733 12.2534 18.4266 11.6134 17.76 11.5467C17.28 11.4934 16.7866 11.7467 16.4933 12.2001C16.4933 12.0267 16.4933 11.8534 16.4933 11.6801C16.5066 10.8401 15.9066 10.1334 15.16 10.0401C14.56 9.96006 13.9333 10.2934 13.6133 10.8667C13.6133 10.6267 13.6133 10.3734 13.6133 10.1334C13.6 9.46673 13.1333 8.88006 12.48 8.72006C11.8266 8.56006 11.1333 8.8534 10.8 9.44006C10.8 8.2534 10.8 7.06673 10.8 5.86673C10.76 5.02673 10.0533 4.42673 9.31997 4.46673C8.71997 4.50673 8.17331 4.98673 8.03997 5.64006C8.03997 8.40006 8.03997 11.1601 8.03997 13.9201C7.79997 13.0934 6.99997 12.6401 6.31997 12.8134C5.81331 12.9467 5.41331 13.4401 5.31997 14.0267Z" fill="#CB1B5B"/>
<path d="M14.4797 6.02681C14.4797 7.01348 14.2131 7.93348 13.7331 8.70681C13.4397 8.38681 13.0664 8.16014 12.6397 8.06681C12.2531 7.97348 11.8531 7.98681 11.4797 8.10681V5.81348C11.3864 4.62681 10.4131 3.74681 9.27974 3.80014C8.35974 3.86681 7.58641 4.56014 7.38641 5.50681L7.37307 10.8535C5.43974 10.1068 4.06641 8.22681 4.06641 6.02681C4.06641 3.14681 6.39974 0.813477 9.26641 0.813477C12.1464 0.813477 14.4797 3.14681 14.4797 6.02681Z" fill="#CB1B5B"/>
</svg>
