<svg width="24" height="24" viewBox="0 0 24 24" fill="none" xmlns="http://www.w3.org/2000/svg">
<path d="M16.9462 10.8398C14.1195 10.8398 11.8262 13.1332 11.8262 15.9598C11.8262 18.7865 14.1195 21.0798 16.9462 21.0798C19.7728 21.0798 22.0662 18.7865 22.0662 15.9598C22.0662 13.1332 19.7728 10.8398 16.9462 10.8398ZM19.9728 18.8665C19.8395 18.9998 19.6662 19.0665 19.5062 19.0665C19.3328 19.0665 19.1595 18.9998 19.0262 18.8665L16.9462 16.7865L14.8662 18.8798C14.7328 18.9998 14.5595 19.0665 14.3862 19.0665C14.2262 19.0665 14.0528 18.9998 13.9195 18.8798C13.6662 18.6132 13.6662 18.1865 13.9195 17.9332L16.0128 15.8398L13.9328 13.7598C13.6662 13.5065 13.6662 13.0798 13.9328 12.8265C14.1862 12.5598 14.6128 12.5598 14.8662 12.8265L16.9462 14.9065L19.0262 12.8265C19.2795 12.5732 19.7062 12.5732 19.9595 12.8265C20.2262 13.0932 20.2262 13.5065 19.9595 13.7732L17.8928 15.8398L19.9728 17.9198C20.2395 18.1865 20.2395 18.5998 19.9728 18.8665Z" fill="#CB1B5B"/>
<path d="M11.2392 17.2266C7.13255 17.3066 4.11922 17.2933 3.43922 17.2266C2.87922 17.1599 2.62589 16.9199 2.55922 16.8666C2.33255 16.6399 2.19922 16.3333 2.19922 15.9866V6.91992H16.3726C16.3726 7.99992 16.3726 9.07992 16.3726 10.1599C16.0259 10.1999 13.7459 10.4533 12.2259 12.5066C10.6926 14.5999 11.1726 16.8933 11.2392 17.2266Z" fill="#CB1B5B"/>
<path d="M17.0808 6.4406H1.49414V3.54727C1.49414 3.21393 1.76081 2.94727 2.09414 2.94727H16.4675C16.8008 2.94727 17.0675 3.21393 17.0675 3.54727V6.4406H17.0808Z" fill="#CB1B5B"/>
</svg>
