<svg width="32" height="32" viewBox="0 0 32 32" fill="none" xmlns="http://www.w3.org/2000/svg">
<path d="M9.95425 18.3113C12.507 18.3113 14.5765 16.2419 14.5765 13.6891C14.5765 11.1363 12.507 9.06689 9.95425 9.06689C7.40147 9.06689 5.33203 11.1363 5.33203 13.6891C5.33203 16.2419 7.40147 18.3113 9.95425 18.3113Z" fill="#98969D"/>
<path d="M17.0662 21.6891C15.1107 22.578 13.6885 24.5335 13.1551 26.6669H1.77734V24.8891C1.77734 21.6891 4.26623 19.2002 7.46623 19.2002H12.2662C14.2218 19.2002 15.9996 20.2669 17.0662 21.6891Z" fill="#98969D"/>
<path d="M22.755 21.867C25.3078 21.867 27.3773 19.7976 27.3773 17.2448C27.3773 14.692 25.3078 12.6226 22.755 12.6226C20.2023 12.6226 18.1328 14.692 18.1328 17.2448C18.1328 19.7976 20.2023 21.867 22.755 21.867Z" fill="#98969D"/>
<path d="M30.9317 30.2225H14.7539V28.4447C14.7539 25.2447 17.2428 22.7559 20.4428 22.7559H25.2428C28.4428 22.7559 30.9317 25.2447 30.9317 28.4447V30.2225Z" fill="#98969D"/>
<path d="M23.8206 3.55566H15.465C15.1095 3.55566 14.7539 3.91122 14.7539 4.26678V9.95566C14.7539 10.3112 15.1095 10.6668 15.465 10.6668H16.7095V12.089C16.7095 12.2668 16.8872 12.2668 16.8872 12.2668L18.8428 10.6668H23.8206C24.1761 10.6668 24.5317 10.3112 24.5317 9.95566V4.26678C24.5317 3.91122 24.1761 3.55566 23.8206 3.55566ZM22.5761 8.35566H18.4872C18.3095 8.35566 17.9539 8.17789 17.9539 7.82233C17.9539 7.64455 18.1317 7.46677 18.4872 7.46677H22.5761C22.7539 7.46677 23.1095 7.64455 23.1095 7.82233C22.9317 8.00011 22.7539 8.35566 22.5761 8.35566ZM22.5761 6.40011H16.7095C16.5317 6.40011 16.3539 6.04455 16.3539 5.86678C16.3539 5.689 16.5317 5.33344 16.7095 5.33344H22.5761C22.7539 5.33344 23.1095 5.51122 23.1095 5.86678C22.9317 6.04455 22.7539 6.40011 22.5761 6.40011Z" fill="#98969D"/>
</svg>
