<svg width="24" height="24" viewBox="0 0 24 24" fill="none" xmlns="http://www.w3.org/2000/svg">
<path d="M21.533 9.79977C21.493 9.75977 21.4397 9.75977 21.413 9.75977H2.58633C2.26633 9.75977 1.98633 10.0398 1.98633 10.3598V19.9331C1.98633 20.2664 2.26633 20.5331 2.58633 20.5331H21.413C21.733 20.5331 22.013 20.2664 22.013 19.9331V10.3598C22.013 10.0664 21.7997 9.82643 21.533 9.79977ZM14.053 13.4264H14.9597C15.2397 13.4264 15.4663 13.6531 15.4663 13.9198C15.4663 14.1998 15.2397 14.4264 14.9597 14.4264H14.0397C13.7863 15.3864 12.933 16.1198 11.9197 16.1864L11.1863 16.1998L12.8663 18.4531C13.0263 18.6798 12.9863 18.9864 12.7597 19.1598C12.6797 19.2264 12.573 19.2531 12.4663 19.2531C12.3197 19.2531 12.1597 19.1864 12.0663 19.0531L9.79966 15.9998C9.67966 15.8398 9.66633 15.6398 9.74633 15.4798C9.83966 15.3064 10.013 15.1998 10.1997 15.1998L11.8797 15.1864C12.3597 15.1598 12.773 14.8531 12.973 14.4264H9.98633C9.71966 14.4264 9.49299 14.1998 9.49299 13.9198C9.49299 13.6531 9.71966 13.4264 9.98633 13.4264H13.0263C12.8797 13.0131 12.5197 12.6798 12.0797 12.5731H9.98633C9.71966 12.5731 9.49299 12.3464 9.49299 12.0664C9.49299 11.7864 9.71966 11.5731 9.98633 11.5731H14.9597C15.2397 11.5731 15.4663 11.7864 15.4663 12.0664C15.4663 12.3464 15.2397 12.5731 14.9597 12.5731H13.7063C13.8797 12.8264 13.9997 13.1198 14.053 13.4264Z" fill="#CB1B5B"/>
<path d="M20.9331 9.22625C20.8931 9.19958 20.8397 9.19958 20.8131 9.19958H3.06641L17.5597 3.21292C17.9731 3.03958 18.4531 3.23958 18.6264 3.65292L20.9331 9.22625Z" fill="#CB1B5B"/>
</svg>
