<svg width="24" height="24" viewBox="0 0 24 24" fill="none" xmlns="http://www.w3.org/2000/svg">
<path d="M20.4401 17.9199C20.4935 18.7599 19.8001 19.5199 18.8935 19.5332C14.3735 19.5732 9.8668 19.6266 5.3468 19.6799C4.3468 19.6532 3.61347 18.7866 3.69347 17.9199C3.77347 17.1866 4.44014 16.5466 5.28014 16.5066V11.3866C5.28014 7.62658 8.33347 4.57324 12.0935 4.57324C13.5868 4.57324 14.9735 5.05324 16.1068 5.87991C14.6535 6.61324 13.6668 8.10658 13.6668 9.83991C13.6668 12.3066 15.6668 14.2932 18.1201 14.2932C18.3868 14.2932 18.6535 14.2666 18.9068 14.2132V16.5066C19.7335 16.5199 20.3868 17.1599 20.4401 17.9199Z" fill="#CB1B5B"/>
<path d="M9.18594 4.61289C9.01261 2.77289 10.4659 1.22622 12.1593 1.21289C13.8659 1.21289 15.3459 2.79956 15.1326 4.66622C14.5993 4.38622 13.4926 3.89289 12.0126 3.91956C10.7059 3.94622 9.70594 4.34622 9.18594 4.61289Z" fill="#CB1B5B"/>
<path d="M14.773 21.9606H9.22638C8.75971 21.9606 8.37305 21.5739 8.37305 21.1072C8.37305 20.6406 8.75971 20.2539 9.22638 20.2539H14.773C15.2397 20.2539 15.6264 20.6406 15.6264 21.1072C15.6264 21.5739 15.253 21.9606 14.773 21.9606Z" fill="#CB1B5B"/>
<path d="M18.1207 6.06641C16.0273 6.06641 14.334 7.75974 14.334 9.83974C14.334 11.9331 16.0273 13.6264 18.1207 13.6264C20.2007 13.6264 21.9073 11.9331 21.9073 9.83974C21.9073 7.75974 20.2007 6.06641 18.1207 6.06641ZM20.0273 10.1731H18.1207C17.934 10.1731 17.7873 10.0264 17.7873 9.83974V7.14641C17.7873 6.95974 17.934 6.81307 18.1207 6.81307C18.294 6.81307 18.454 6.95974 18.454 7.14641V9.50641H20.0273C20.214 9.50641 20.3607 9.66641 20.3607 9.83974C20.3607 10.0264 20.214 10.1731 20.0273 10.1731Z" fill="#CB1B5B"/>
</svg>
