<svg width="24" height="24" viewBox="0 0 24 24" fill="none" xmlns="http://www.w3.org/2000/svg">
<path d="M15.2795 4.18652C10.9461 4.18652 7.43945 7.69319 7.43945 12.0265C7.43945 16.3599 10.9461 19.8665 15.2795 19.8665C19.6128 19.8665 23.1195 16.3599 23.1195 12.0265C23.1195 7.69319 19.6128 4.18652 15.2795 4.18652ZM14.7861 5.05319C14.7861 4.78652 14.9995 4.55986 15.2795 4.55986C15.5595 4.55986 15.7861 4.78652 15.7861 5.05319V6.14652C15.7861 6.42652 15.5595 6.63986 15.2795 6.63986C14.9995 6.63986 14.7861 6.42652 14.7861 6.14652V5.05319ZM9.55945 12.5199H8.31945C8.03945 12.5199 7.81279 12.3065 7.81279 12.0265C7.81279 11.7465 8.03945 11.5199 8.31945 11.5199H9.55945C9.83945 11.5199 10.0528 11.7465 10.0528 12.0265C10.0528 12.3065 9.83945 12.5199 9.55945 12.5199ZM15.7861 18.9865C15.7861 19.2665 15.5595 19.4932 15.2795 19.4932C14.9995 19.4932 14.7861 19.2665 14.7861 18.9865V17.6932C14.7861 17.4132 14.9995 17.1865 15.2795 17.1865C15.5595 17.1865 15.7861 17.4132 15.7861 17.6932V18.9865ZM18.4928 12.5199H15.2795C15.1995 12.5199 15.1328 12.5065 15.0661 12.4665C15.0128 12.4399 14.9595 12.4132 14.9195 12.3465C14.9061 12.3599 14.8928 12.3332 14.8795 12.3199L12.1195 8.55986C11.9461 8.34652 11.9995 8.02652 12.2261 7.86652C12.4395 7.70652 12.7595 7.74652 12.9195 7.97319L15.5195 11.5199H18.4928C18.7595 11.5199 18.9861 11.7465 18.9861 12.0265C18.9861 12.3065 18.7595 12.5199 18.4928 12.5199ZM22.1595 12.5199H21.0795C20.7995 12.5199 20.5728 12.3065 20.5728 12.0265C20.5728 11.7465 20.7995 11.5199 21.0795 11.5199H22.1595C22.4395 11.5199 22.6661 11.7465 22.6661 12.0265C22.6661 12.3065 22.4395 12.5199 22.1595 12.5199Z" fill="#CB1B5B"/>
<path d="M9.43964 5.51953C9.0263 5.87953 8.65297 6.3062 8.31964 6.75953H4.9063C4.55964 6.75953 4.29297 6.49286 4.29297 6.1462C4.29297 5.79953 4.55964 5.51953 4.9063 5.51953H9.43964Z" fill="#CB1B5B"/>
<path d="M2.30669 8.2666H7.42669C7.22669 8.6666 7.06669 9.07994 6.96003 9.5066H2.30669C1.97336 9.5066 1.69336 9.2266 1.69336 8.87993C1.69336 8.5466 1.97336 8.2666 2.30669 8.2666Z" fill="#CB1B5B"/>
<path d="M6.58617 11.9997C6.58617 12.213 6.59951 12.4264 6.61284 12.6264H1.45284C1.10617 12.6264 0.826172 12.3464 0.826172 11.9997C0.826172 11.653 1.10617 11.373 1.45284 11.373H6.61284C6.59951 11.573 6.58617 11.7864 6.58617 11.9997Z" fill="#CB1B5B"/>
<path d="M7.45336 15.7869H2.30669C1.97336 15.7869 1.69336 15.5069 1.69336 15.1735C1.69336 14.8269 1.97336 14.5469 2.30669 14.5469H6.97336C7.09336 14.9735 7.25336 15.3869 7.45336 15.7869Z" fill="#CB1B5B"/>
<path d="M9.9063 18.8933H4.9063C4.55964 18.8933 4.29297 18.6133 4.29297 18.28C4.29297 17.9333 4.55964 17.6533 4.9063 17.6533H8.63964C9.0263 18.1067 9.43964 18.5333 9.9063 18.8933Z" fill="#CB1B5B"/>
</svg>
