<svg width="24" height="24" viewBox="0 0 24 24" fill="none" xmlns="http://www.w3.org/2000/svg">
<path d="M23.707 17.1866C23.6936 17.5466 23.4403 17.8266 23.0936 17.8266C23.0803 17.8266 23.0803 17.8266 23.067 17.8266L19.6536 17.7199C19.467 17.7066 19.2936 17.6266 19.1736 17.4799C19.0536 17.3466 18.987 17.1599 19.0136 16.9732L19.347 13.7466C19.387 13.3732 19.6936 13.1066 20.0803 13.1466C20.4536 13.1866 20.7203 13.5199 20.6803 13.8799L20.4936 15.6932C21.067 15.3332 21.8136 14.6932 22.1336 13.6132C22.547 12.2399 21.9736 11.0666 21.787 10.7466C21.6003 10.4266 21.7203 10.0266 22.0403 9.8399C22.347 9.65323 22.7603 9.7599 22.947 10.0799C23.2003 10.5199 23.9736 12.1066 23.4136 13.9999C23.067 15.1332 22.387 15.9332 21.7336 16.4532L23.0003 16.4932C23.3736 16.5066 23.7203 16.8132 23.707 17.1866Z" fill="#CB1B5B"/>
<path d="M17.8537 1.94727C15.4004 1.94727 13.4004 3.94727 13.4004 6.4006C13.4004 8.86727 15.4004 10.8539 17.8537 10.8539C20.3204 10.8539 22.3204 8.86727 22.3204 6.4006C22.3204 3.94727 20.3204 1.94727 17.8537 1.94727ZM20.6404 9.73393C20.4537 9.89393 20.2671 10.0139 20.1071 10.1073L14.6137 3.58727C14.7337 3.45393 14.8937 3.2806 15.0804 3.1206C15.2804 2.9606 15.4671 2.8406 15.6271 2.74727C17.4537 4.9206 19.2804 7.09393 21.1071 9.26726C20.9871 9.41393 20.8404 9.57393 20.6404 9.73393Z" fill="#CB1B5B"/>
<path d="M8.46633 7.21359C7.09299 5.84026 4.85299 5.84026 3.47966 7.21359L3.02633 7.68026C1.63966 9.05359 1.63966 11.2936 3.02633 12.6669L6.55966 16.2136H6.57299L12.013 10.7603L8.46633 7.21359ZM5.75966 12.1869C5.63966 12.3869 5.413 12.5069 5.18633 12.5069C5.06633 12.5069 4.94633 12.4803 4.83966 12.4136C4.07966 11.9469 3.61299 11.1336 3.65299 10.2936C3.67966 9.53359 4.07966 9.02693 4.31966 8.78693C4.57299 8.52026 4.99966 8.52026 5.26633 8.77359C5.51966 9.02693 5.53299 9.45359 5.27966 9.72026C5.18633 9.80026 4.99966 10.0269 4.98633 10.3469C4.97299 10.7069 5.173 11.0536 5.53299 11.2669C5.83966 11.4536 5.94633 11.8669 5.75966 12.1869Z" fill="#CB1B5B"/>
<path d="M16.9862 20.7337L16.5329 21.187C15.1595 22.5604 12.9195 22.5604 11.5462 21.187L7.51953 17.1604L12.9595 11.707L16.9862 15.7337C18.3729 17.1204 18.3729 19.347 16.9862 20.7337Z" fill="#CB1B5B"/>
</svg>
