<svg width="49" height="48" viewBox="0 0 49 48" fill="none" xmlns="http://www.w3.org/2000/svg">
<circle cx="24.0879" cy="24" r="24" fill="white" fill-opacity="0.15"/>
<path fill-rule="evenodd" clip-rule="evenodd" d="M27.8163 16.4204C28.4788 16.3932 29.1549 16.4204 29.8175 16.4204C29.8986 16.4204 29.9797 16.4204 30.0879 16.4204V12.9163C29.7363 12.8754 29.3577 12.8345 28.9791 12.8072C28.2895 12.78 27.5999 12.7391 26.9238 12.7527C25.8691 12.78 24.8821 13.039 24.0167 13.6526C23.0296 14.3752 22.4752 15.3842 22.2724 16.584C22.1913 17.0749 22.1642 17.593 22.1507 18.0839C22.1372 18.8747 22.1507 19.6518 22.1507 20.4427V20.7426H18.8379V24.6558H22.1507V34.5H26.1937V24.6694H29.4929C29.6687 23.3605 29.831 22.0788 30.0068 20.729C29.7363 20.729 29.5065 20.729 29.2631 20.729C28.3301 20.729 26.1666 20.729 26.1666 20.729C26.1666 20.729 26.1801 18.7929 26.1937 17.9475C26.2207 16.8022 26.9103 16.4613 27.8163 16.4204Z" fill="white"/>
</svg>
