<svg width="169" height="48" viewBox="0 0 169 48" fill="none" xmlns="http://www.w3.org/2000/svg">
<path d="M102.669 38.7219C102.669 38.9863 102.741 39.1786 102.861 39.2988C102.981 39.443 103.173 39.5151 103.436 39.5151C103.652 39.5151 103.82 39.467 103.963 39.3949C104.107 39.3228 104.227 39.2026 104.299 39.0825C104.371 38.9383 104.395 38.77 104.395 38.5777C104.395 38.4335 104.371 38.3373 104.323 38.2172C104.275 38.121 104.203 38.0249 104.107 37.9287C104.011 37.8326 103.892 37.7364 103.7 37.5922C103.532 37.4961 103.412 37.3759 103.292 37.2798C103.197 37.1596 103.101 37.0394 103.029 36.9192C102.981 36.775 102.933 36.6308 102.933 36.4625C102.933 36.1981 103.005 35.9818 103.125 35.7895C103.244 35.5732 103.436 35.429 103.652 35.3088C103.892 35.2127 104.155 35.1646 104.467 35.1646C104.658 35.1646 104.85 35.1646 105.018 35.1886C105.186 35.2127 105.377 35.2607 105.593 35.3328L105.401 36.1981H105.09C105.09 36.0059 105.066 35.8616 105.018 35.7415C104.97 35.6453 104.898 35.5732 104.802 35.5251C104.706 35.4771 104.587 35.453 104.443 35.453C104.251 35.453 104.083 35.4771 103.963 35.5492C103.82 35.6453 103.7 35.7415 103.628 35.8616C103.556 36.0059 103.532 36.1501 103.532 36.2943C103.532 36.4145 103.556 36.5106 103.58 36.6068C103.628 36.7029 103.7 36.799 103.772 36.8712C103.868 36.9673 103.987 37.0634 104.155 37.1836C104.371 37.3278 104.539 37.4721 104.658 37.5922C104.778 37.7124 104.85 37.8326 104.898 37.9528C104.97 38.097 104.994 38.2412 104.994 38.4335C104.994 38.6979 104.922 38.9383 104.802 39.1305C104.658 39.3469 104.491 39.5151 104.251 39.6353C104.011 39.7314 103.748 39.8035 103.436 39.8035C103.244 39.8035 103.029 39.7795 102.789 39.7555C102.549 39.7074 102.358 39.6834 102.166 39.6353L102.358 38.7219H102.669ZM107.199 35.2607L107.055 35.9097H106.456L106.624 35.2607H107.199ZM106.384 38.9142C106.36 39.0344 106.336 39.1065 106.336 39.1546C106.336 39.2026 106.336 39.2507 106.336 39.2988C106.336 39.3469 106.336 39.419 106.36 39.443C106.384 39.4911 106.408 39.5151 106.456 39.5392C106.504 39.5632 106.576 39.5632 106.696 39.5872L106.672 39.7314H105.641L106.144 37.4961C106.168 37.3759 106.192 37.2798 106.192 37.2077C106.216 37.1115 106.216 37.0634 106.216 37.0154C106.216 36.9433 106.192 36.8952 106.192 36.8471C106.168 36.8231 106.12 36.799 106.096 36.775C106.048 36.751 105.977 36.751 105.857 36.751L105.905 36.5587L106.696 36.5346H106.887L106.384 38.9142ZM110.314 39.7314H109.26L109.691 38.0489C109.715 37.9528 109.739 37.8326 109.763 37.6884C109.787 37.5682 109.811 37.448 109.811 37.3519C109.811 37.1836 109.763 37.0634 109.715 37.0154C109.667 36.9433 109.571 36.8952 109.476 36.8952C109.38 36.8952 109.284 36.9433 109.164 37.0154C109.068 37.0875 108.948 37.1836 108.829 37.3278C108.709 37.4721 108.613 37.6163 108.541 37.7605C108.445 37.9047 108.397 38.097 108.349 38.3133L108.038 39.7314H107.462L107.966 37.4721C107.99 37.424 107.99 37.3519 108.014 37.2557C108.038 37.1596 108.038 37.0634 108.038 36.9913C108.038 36.9433 108.038 36.8952 108.014 36.8471C107.99 36.8231 107.966 36.799 107.918 36.775C107.87 36.751 107.798 36.751 107.702 36.751L107.726 36.5587L108.493 36.5346H108.685L108.445 37.3999L108.493 37.424C108.709 37.1115 108.924 36.8712 109.116 36.7269C109.332 36.5827 109.524 36.5106 109.715 36.5106C109.931 36.5106 110.099 36.5827 110.219 36.7029C110.314 36.799 110.362 36.9913 110.362 37.2077C110.362 37.3038 110.362 37.3759 110.362 37.4721C110.338 37.5682 110.314 37.6643 110.314 37.7364L110.027 38.9142C109.979 39.0825 109.979 39.2026 109.979 39.2988C109.979 39.3469 109.979 39.419 110.003 39.443C110.027 39.4911 110.051 39.5151 110.099 39.5392C110.147 39.5632 110.219 39.5632 110.338 39.5872L110.314 39.7314ZM113.238 37.3759C113.238 37.2077 113.238 37.0634 113.214 36.9913C113.19 36.9192 113.142 36.8712 113.094 36.8231C113.047 36.799 112.975 36.775 112.879 36.775C112.663 36.775 112.447 36.8712 112.28 37.0394C112.088 37.2077 111.944 37.4721 111.848 37.8086C111.728 38.121 111.68 38.4335 111.68 38.746C111.68 38.8421 111.68 38.9142 111.704 39.0104C111.704 39.0825 111.728 39.1546 111.776 39.2267C111.824 39.2748 111.872 39.3228 111.944 39.3469C112.016 39.3949 112.088 39.419 112.208 39.419C112.399 39.419 112.567 39.3709 112.711 39.2988C112.879 39.2267 113.023 39.1065 113.19 38.9383L113.382 39.1305C113.19 39.3709 112.975 39.5392 112.759 39.6353C112.543 39.7555 112.328 39.8035 112.088 39.8035C111.752 39.8035 111.513 39.7074 111.345 39.5151C111.177 39.3228 111.105 39.0584 111.105 38.6739C111.105 38.4575 111.153 38.1931 111.225 37.9047C111.321 37.6163 111.441 37.3759 111.633 37.1596C111.8 36.9433 111.992 36.775 112.208 36.6789C112.447 36.5587 112.687 36.5106 112.951 36.5106C113.118 36.5106 113.286 36.5346 113.406 36.5346C113.55 36.5587 113.67 36.5827 113.765 36.6068L113.598 37.3759H113.238ZM116.426 39.0825C116.258 39.2507 116.09 39.3949 115.946 39.5151C115.803 39.6113 115.635 39.6834 115.491 39.7314C115.347 39.7795 115.179 39.8035 114.988 39.8035C114.82 39.8035 114.676 39.7795 114.556 39.7074C114.413 39.6593 114.317 39.5872 114.245 39.467C114.149 39.3709 114.101 39.2748 114.053 39.1305C114.005 38.9863 113.981 38.8421 113.981 38.6739C113.981 38.4575 114.029 38.1931 114.125 37.9287C114.197 37.6403 114.341 37.3999 114.508 37.1836C114.676 36.9673 114.892 36.799 115.132 36.6789C115.371 36.5587 115.611 36.5106 115.898 36.5106C116.162 36.5106 116.354 36.5587 116.498 36.6789C116.617 36.775 116.689 36.9433 116.689 37.1836C116.689 37.5682 116.522 37.8326 116.162 38.0249C115.803 38.2172 115.299 38.3133 114.604 38.3133C114.58 38.4335 114.556 38.5777 114.556 38.746C114.556 38.9863 114.604 39.1546 114.7 39.2507C114.772 39.3469 114.94 39.419 115.132 39.419C115.347 39.419 115.515 39.3709 115.683 39.2748C115.851 39.1786 116.018 39.0584 116.21 38.8661L116.426 39.0825ZM114.652 38.0249C114.868 38.0249 115.036 38.0249 115.179 38.0008C115.347 37.9768 115.467 37.9528 115.587 37.9047C115.683 37.8807 115.779 37.8326 115.851 37.7845C115.922 37.7364 115.994 37.6643 116.042 37.6163C116.066 37.5442 116.114 37.4721 116.114 37.424C116.138 37.3519 116.138 37.2798 116.138 37.2077C116.138 37.0634 116.114 36.9673 116.042 36.8952C115.994 36.8231 115.898 36.775 115.779 36.775C115.611 36.775 115.467 36.8231 115.323 36.9433C115.179 37.0634 115.036 37.2077 114.916 37.3999C114.82 37.5922 114.724 37.7845 114.652 38.0249ZM118.127 36.5346H118.343L118.103 37.3519L118.151 37.3759C118.343 37.0875 118.559 36.8712 118.75 36.7269C118.966 36.5827 119.158 36.5106 119.373 36.5106C119.541 36.5106 119.661 36.5346 119.781 36.5587L119.613 37.3038H119.278C119.254 37.1836 119.23 37.0875 119.206 37.0394C119.158 36.9673 119.11 36.9433 119.014 36.9433C118.942 36.9433 118.846 36.9913 118.726 37.0634C118.607 37.1596 118.487 37.2798 118.391 37.448C118.271 37.5922 118.175 37.7364 118.127 37.8807C118.055 38.0008 118.007 38.1451 117.983 38.3133L117.672 39.7314H117.097L117.6 37.4721C117.648 37.2557 117.672 37.1115 117.672 36.9913C117.672 36.9433 117.672 36.8952 117.648 36.8471C117.624 36.8231 117.6 36.799 117.552 36.775C117.504 36.751 117.432 36.751 117.336 36.751L117.36 36.5587L118.127 36.5346ZM122.201 39.0825C122.058 39.2507 121.89 39.3949 121.746 39.5151C121.602 39.6113 121.435 39.6834 121.291 39.7314C121.147 39.7795 120.979 39.8035 120.787 39.8035C120.62 39.8035 120.476 39.7795 120.332 39.7074C120.212 39.6593 120.116 39.5872 120.021 39.467C119.949 39.3709 119.877 39.2748 119.853 39.1305C119.805 38.9863 119.781 38.8421 119.781 38.6739C119.781 38.4575 119.829 38.1931 119.925 37.9287C119.997 37.6403 120.14 37.3999 120.308 37.1836C120.476 36.9673 120.668 36.799 120.931 36.6789C121.171 36.5587 121.411 36.5106 121.698 36.5106C121.962 36.5106 122.154 36.5587 122.297 36.6789C122.417 36.775 122.489 36.9433 122.489 37.1836C122.489 37.5682 122.321 37.8326 121.962 38.0249C121.602 38.2172 121.099 38.3133 120.404 38.3133C120.356 38.4335 120.356 38.5777 120.356 38.746C120.356 38.9863 120.404 39.1546 120.5 39.2507C120.572 39.3469 120.74 39.419 120.931 39.419C121.147 39.419 121.315 39.3709 121.482 39.2748C121.65 39.1786 121.818 39.0584 122.01 38.8661L122.201 39.0825ZM120.452 38.0249C120.644 38.0249 120.835 38.0249 120.979 38.0008C121.147 37.9768 121.267 37.9528 121.387 37.9047C121.482 37.8807 121.578 37.8326 121.65 37.7845C121.722 37.7364 121.794 37.6643 121.818 37.6163C121.866 37.5442 121.914 37.4721 121.914 37.424C121.938 37.3519 121.938 37.2798 121.938 37.2077C121.938 37.0634 121.914 36.9673 121.842 36.8952C121.794 36.8231 121.698 36.775 121.578 36.775C121.411 36.775 121.267 36.8231 121.123 36.9433C120.955 37.0634 120.835 37.2077 120.716 37.3999C120.596 37.5922 120.524 37.7845 120.452 38.0249ZM124.239 34.9963H124.43L123.568 38.9142C123.544 39.0104 123.544 39.1065 123.52 39.1546C123.52 39.2026 123.52 39.2507 123.52 39.2988C123.52 39.3469 123.52 39.419 123.544 39.443C123.568 39.4911 123.615 39.5151 123.663 39.5392C123.687 39.5632 123.783 39.5632 123.879 39.5872L123.855 39.7314H122.825L123.687 35.9337C123.687 35.8376 123.711 35.7655 123.711 35.7174C123.735 35.6693 123.735 35.6213 123.735 35.5732C123.735 35.5251 123.759 35.4771 123.759 35.453C123.759 35.3809 123.735 35.3328 123.711 35.3088C123.687 35.2607 123.663 35.2367 123.615 35.2367C123.568 35.2127 123.472 35.2127 123.376 35.1886L123.4 35.0204L124.239 34.9963ZM124.958 37.2798C124.934 37.1115 124.91 37.0154 124.886 36.9433C124.862 36.8712 124.838 36.8231 124.79 36.799C124.742 36.751 124.67 36.7269 124.574 36.7269L124.622 36.5587H125.461L125.724 39.2026C126.467 38.1931 126.851 37.448 126.851 37.0154C126.851 36.8952 126.827 36.8231 126.779 36.799C126.731 36.751 126.659 36.7269 126.539 36.7269L126.587 36.5587H127.426L127.522 36.7269C127.402 37.0394 127.258 37.3519 127.067 37.6884C126.899 38.0249 126.659 38.3854 126.395 38.77C126.132 39.1546 125.844 39.5632 125.533 39.9958C125.269 40.3323 125.077 40.5727 124.91 40.741C124.766 40.8611 124.646 40.9573 124.55 41.0294C124.43 41.0775 124.334 41.1255 124.239 41.1496C124.119 41.1976 124.023 41.1976 123.903 41.1976C123.831 41.1976 123.783 41.1976 123.687 41.1736C123.615 41.1736 123.568 41.1496 123.496 41.1255L123.639 40.5246H123.903C123.903 40.5967 123.927 40.6448 123.951 40.6929C123.999 40.741 124.047 40.765 124.095 40.765C124.167 40.765 124.239 40.741 124.286 40.741C124.334 40.7169 124.382 40.6929 124.454 40.6688C124.502 40.6448 124.574 40.5727 124.646 40.5006C124.742 40.4285 124.838 40.3323 124.934 40.2122C125.029 40.092 125.149 39.9478 125.269 39.7795L124.958 37.2798ZM130.901 35.2127L130.853 35.3809C130.781 35.3809 130.709 35.405 130.661 35.453C130.613 35.5011 130.59 35.5732 130.59 35.6693C130.59 35.7895 130.613 35.9818 130.661 36.1981L131.021 37.448L131.836 36.3664C131.956 36.1981 132.051 36.0539 132.099 35.9818C132.147 35.8857 132.195 35.7895 132.219 35.7415C132.243 35.6693 132.243 35.6213 132.243 35.5732C132.243 35.5251 132.219 35.4771 132.171 35.429C132.147 35.405 132.075 35.3809 132.004 35.3809L132.027 35.2127H133.274L133.25 35.3809C133.178 35.3809 133.13 35.405 133.106 35.429C133.058 35.429 133.01 35.4771 132.962 35.5251C132.914 35.5732 132.842 35.6453 132.77 35.7415C132.675 35.8376 132.579 35.9818 132.435 36.1501L131.141 37.8326L130.949 38.77C130.925 38.8661 130.901 38.9383 130.901 38.9863C130.901 39.0344 130.901 39.0825 130.877 39.1546C130.877 39.2026 130.877 39.2507 130.877 39.2988C130.877 39.3709 130.877 39.419 130.901 39.467C130.925 39.4911 130.973 39.5151 130.997 39.5392C131.045 39.5632 131.141 39.5632 131.237 39.5872L131.213 39.7314H129.799L129.847 39.5872C129.942 39.5632 129.99 39.5392 130.038 39.5392C130.086 39.5151 130.11 39.467 130.158 39.419C130.182 39.3709 130.206 39.2988 130.254 39.2026C130.278 39.1065 130.326 38.9623 130.35 38.746L130.566 37.8326L130.086 36.1501C130.014 35.9097 129.942 35.7174 129.895 35.6453C129.871 35.5492 129.823 35.4771 129.775 35.453C129.727 35.405 129.655 35.3809 129.583 35.3809L129.607 35.2127H130.901ZM133.441 39.8035C133.106 39.8035 132.842 39.7074 132.651 39.5151C132.459 39.3228 132.363 39.0344 132.363 38.6739C132.363 38.5537 132.387 38.3854 132.411 38.2172C132.459 37.9768 132.531 37.7845 132.603 37.5922C132.699 37.3759 132.818 37.1836 132.986 37.0154C133.13 36.8471 133.322 36.7269 133.513 36.6308C133.729 36.5587 133.945 36.5106 134.16 36.5106C134.424 36.5106 134.64 36.5587 134.784 36.6548C134.951 36.751 135.071 36.8952 135.143 37.0634C135.215 37.2317 135.263 37.424 135.263 37.6403C135.263 37.8326 135.239 38.0489 135.167 38.2652C135.095 38.6017 134.975 38.8661 134.831 39.1065C134.664 39.3228 134.472 39.5151 134.256 39.6113C134.017 39.7314 133.753 39.8035 133.441 39.8035ZM132.962 38.8181C132.962 39.0584 133.01 39.2507 133.106 39.3709C133.202 39.467 133.346 39.5392 133.561 39.5392C133.777 39.5392 133.969 39.443 134.136 39.2507C134.304 39.0584 134.424 38.77 134.52 38.4335C134.616 38.073 134.664 37.7605 134.664 37.4961C134.664 37.2557 134.64 37.0875 134.544 36.9673C134.448 36.8471 134.304 36.775 134.112 36.775C133.873 36.775 133.681 36.8712 133.513 37.0634C133.322 37.2557 133.202 37.5442 133.106 37.9047C133.01 38.2652 132.962 38.5537 132.962 38.8181ZM136.03 36.5587H137.084L136.653 38.2652C136.629 38.3854 136.605 38.5056 136.581 38.6258C136.557 38.746 136.557 38.8661 136.557 38.9623C136.557 39.1305 136.581 39.2267 136.629 39.2988C136.677 39.3709 136.773 39.419 136.893 39.419C136.964 39.419 137.084 39.3709 137.18 39.2988C137.3 39.2267 137.42 39.1065 137.54 38.9623C137.659 38.794 137.755 38.6498 137.827 38.5056C137.899 38.3614 137.971 38.1931 137.995 38.0008L138.307 36.5587H138.882L138.378 38.8421C138.354 38.8902 138.354 38.9863 138.33 39.0825C138.307 39.1786 138.307 39.2507 138.307 39.3228C138.307 39.3949 138.33 39.467 138.378 39.5151C138.426 39.5392 138.522 39.5632 138.666 39.5872L138.642 39.7314H137.683L137.899 38.9142L137.851 38.8902C137.635 39.2026 137.42 39.419 137.228 39.5872C137.036 39.7314 136.821 39.8035 136.629 39.8035C136.413 39.8035 136.245 39.7314 136.15 39.6113C136.03 39.4911 135.982 39.3228 135.982 39.0825C135.982 39.0344 135.982 38.9383 135.982 38.8661C136.006 38.77 136.03 38.6739 136.054 38.5777L136.317 37.3999C136.341 37.3038 136.365 37.2317 136.365 37.1596C136.365 37.1115 136.389 37.0634 136.389 37.0154C136.389 36.9192 136.341 36.8471 136.293 36.799C136.245 36.775 136.15 36.751 136.006 36.7269L136.03 36.5587ZM140.487 36.5346H140.679L140.439 37.3519L140.487 37.3759C140.703 37.0875 140.895 36.8712 141.111 36.7269C141.302 36.5827 141.518 36.5106 141.71 36.5106C141.877 36.5106 142.021 36.5346 142.117 36.5587L141.973 37.3038H141.614C141.614 37.1836 141.59 37.0875 141.542 37.0394C141.494 36.9673 141.446 36.9433 141.374 36.9433C141.278 36.9433 141.182 36.9913 141.063 37.0634C140.967 37.1596 140.847 37.2798 140.727 37.448C140.607 37.5922 140.511 37.7364 140.463 37.8807C140.392 38.0008 140.368 38.1451 140.32 38.3133L140.032 39.7314H139.457L139.96 37.4721C140.008 37.2557 140.032 37.1115 140.032 36.9913C140.032 36.9433 140.008 36.8952 139.984 36.8471C139.984 36.8231 139.936 36.799 139.888 36.775C139.864 36.751 139.768 36.751 139.673 36.751L139.721 36.5587L140.487 36.5346ZM144.106 37.3519C144.082 37.1355 144.034 36.9913 143.938 36.8952C143.843 36.8231 143.723 36.775 143.531 36.775C143.411 36.775 143.339 36.799 143.243 36.8231C143.172 36.8712 143.1 36.9192 143.052 36.9913C143.004 37.0634 142.98 37.1596 142.98 37.2557C142.98 37.3519 142.98 37.424 143.028 37.4961C143.052 37.5442 143.1 37.6163 143.196 37.6884C143.267 37.7605 143.387 37.8566 143.531 37.9528C143.723 38.097 143.891 38.2412 143.962 38.3614C144.058 38.5056 144.106 38.6498 144.106 38.8421C144.106 39.0344 144.058 39.2267 143.938 39.3709C143.843 39.5151 143.723 39.6113 143.555 39.6834C143.363 39.7555 143.172 39.8035 142.956 39.8035C142.764 39.8035 142.572 39.7795 142.405 39.7555C142.237 39.7314 142.093 39.6834 141.925 39.6353L142.069 38.9142H142.333C142.357 39.1305 142.405 39.2748 142.501 39.3709C142.62 39.4911 142.764 39.5392 142.956 39.5392C143.148 39.5392 143.291 39.4911 143.411 39.3949C143.531 39.2988 143.579 39.1546 143.579 38.9863C143.579 38.8902 143.555 38.8181 143.531 38.746C143.483 38.6739 143.435 38.6017 143.363 38.5296C143.291 38.4575 143.196 38.3854 143.076 38.2893C142.932 38.1931 142.812 38.097 142.74 38.0249C142.644 37.9287 142.572 37.8326 142.525 37.7364C142.477 37.6403 142.453 37.5201 142.453 37.3999C142.453 37.2317 142.501 37.0634 142.596 36.9192C142.692 36.799 142.812 36.7029 142.98 36.6308C143.148 36.5587 143.339 36.5106 143.555 36.5106C143.938 36.5106 144.25 36.5587 144.538 36.6548L144.37 37.3519H144.106Z" fill="#2B2A29"/>
<path d="M55.097 12.8353V20.695H45.271V12.8353H41.748V31.8958H45.271V23.7236H55.097V31.8958H58.644V12.8353H55.097ZM77.0258 24.7091C77.0258 20.1663 73.9342 17.1858 69.7162 17.1858C65.4023 17.1858 62.2149 20.2864 62.2149 24.637C62.2149 28.9635 65.3544 32.0881 70.2195 32.0881C72.7119 32.0881 74.749 31.2709 76.0672 29.7086L74.2457 27.6174C73.2152 28.675 71.9211 29.2038 70.3153 29.2038C67.775 29.2038 66.0255 27.8338 65.618 25.7186H76.9779C77.0018 25.3821 77.0258 24.9735 77.0258 24.7091ZM69.7162 19.9259C71.9211 19.9259 73.5268 21.3681 73.8144 23.4592H65.5701C65.9056 21.32 67.5113 19.9259 69.7162 19.9259ZM85.4138 17.1858C83.0891 17.1858 80.8364 17.7867 79.2786 18.9885L80.6207 21.4642C81.6991 20.5749 83.3767 20.022 85.0064 20.022C87.427 20.022 88.6253 21.1998 88.6253 23.1948V23.4111H84.8866C80.4769 23.4111 78.8472 25.31 78.8472 27.7376C78.8472 30.2614 80.9322 32.0881 84.2635 32.0881C86.4204 32.0881 88.0021 31.3671 88.817 30.1172V31.8958H92.0284V23.3631C92.0284 19.1808 89.6079 17.1858 85.4138 17.1858ZM84.9585 29.6124C83.2329 29.6124 82.2024 28.8192 82.2024 27.5934C82.2024 26.5358 82.8255 25.6705 85.1262 25.6705H88.6253V27.353C88.0501 28.8433 86.6121 29.6124 84.9585 29.6124ZM96.3662 31.8958H99.7454V11.7056H96.3662V31.8958ZM112.663 28.675C112.16 29.0836 111.465 29.2759 110.77 29.2759C109.476 29.2759 108.757 28.5068 108.757 27.1127V20.1903H112.639V17.4742H108.757V14.1572H105.377V17.4742H102.981V20.1903H105.377V27.1848C105.377 30.4056 107.199 32.0881 110.362 32.0881C111.585 32.0881 112.807 31.7516 113.622 31.1027L112.663 28.675ZM124.646 17.1858C122.633 17.1858 120.931 17.8588 119.805 19.0366V11.7056H116.426V31.8958H119.805V24.5408C119.805 21.6325 121.435 20.1663 123.855 20.1663C126.012 20.1663 127.306 21.4161 127.306 23.988V31.8958H130.685V23.5553C130.685 19.1808 128.121 17.1858 124.646 17.1858ZM141.23 32.1602C146.431 32.1602 148.899 29.5644 148.899 26.4877C148.899 19.5173 137.635 22.1612 137.635 18.0992C137.635 16.657 138.834 15.5033 141.758 15.5033C143.411 15.5033 145.305 16.008 147.006 16.9935L148.109 14.2534C146.455 13.1718 144.082 12.5709 141.782 12.5709C136.581 12.5709 134.136 15.1908 134.136 18.2674C134.136 25.334 145.424 22.642 145.424 26.7521C145.424 28.1703 144.178 29.2278 141.23 29.2278C138.882 29.2278 136.461 28.3626 134.951 27.1367L133.729 29.8768C135.311 31.2469 138.259 32.1602 141.23 32.1602ZM162.129 17.354L157.527 28.0982L152.974 17.354H149.451L155.778 31.9439L155.514 32.5208C154.867 33.9629 154.172 34.5398 152.974 34.5398C152.063 34.5398 151.128 34.1552 150.481 33.5303L149.115 36.0301C150.05 36.8713 151.56 37.3761 152.998 37.3761C155.418 37.3761 157.263 36.3666 158.582 33.0736L165.388 17.354H162.129Z" fill="#CC195B"/>
<path d="M34.0065 19.6135C33.7429 19.3491 33.5033 19.1087 33.2636 18.9405C33.0239 18.7482 32.7843 18.5799 32.5207 18.4597C32.281 18.3396 32.0174 18.2194 31.7058 18.1473C31.5381 18.0992 31.3703 18.0992 31.2265 18.0511C31.0348 18.0031 30.867 17.979 30.6753 17.931L30.6513 17.9069C30.5555 17.8829 30.5075 17.7867 30.5315 17.6906C30.5315 17.6425 30.5794 17.5944 30.6034 17.5704C30.7712 17.4743 30.9629 17.3781 31.1546 17.306C31.3463 17.2579 31.5381 17.1858 31.7538 17.1858C32.1851 17.1378 32.6405 17.2339 33.0239 17.4262C33.4314 17.5944 33.7909 17.931 34.0065 18.2915C34.2462 18.652 34.366 19.0606 34.3421 19.5173C34.3421 19.6135 34.2462 19.6856 34.1503 19.6856C34.1024 19.6856 34.0545 19.6615 34.0305 19.6375L34.0065 19.6135Z" fill="#CC195B"/>
<path fill-rule="evenodd" clip-rule="evenodd" d="M25.5933 6.80217C24.0355 6.87428 22.8372 8.2203 22.9331 9.7586L24.1074 32.4246C24.2033 33.9629 25.5214 35.1647 27.0792 35.0926C28.613 35.0205 29.8113 33.6745 29.7394 32.1121L28.5651 9.47017C28.4692 7.93186 27.1511 6.70602 25.5933 6.80217Z" fill="#CC195B"/>
<path fill-rule="evenodd" clip-rule="evenodd" d="M11.6709 13.6283C10.1131 13.5562 8.77102 14.758 8.69912 16.3204L7.88428 32.1361C7.78842 33.6744 8.98671 35.0204 10.5445 35.0925C12.0783 35.1887 13.4204 33.9869 13.4923 32.4245L14.3311 16.6088C14.403 15.0465 13.2047 13.7245 11.6709 13.6283Z" fill="#CC195B"/>
<path d="M23.6777 24.06C24.7083 23.6274 25.7388 23.1226 26.6974 22.5458C27.5602 22.017 28.375 21.4161 29.1419 20.7671L29.3097 23.8437C28.9982 24.1562 28.6626 24.4686 28.3271 24.7571C26.985 25.8868 25.4752 26.8001 23.8455 27.4491L23.6777 24.06Z" fill="#A30C43"/>
<path d="M8.31567 23.8201C9.29827 24.2527 10.3288 24.6133 11.3593 24.8777C12.1981 25.094 13.0369 25.2382 13.8757 25.3343L13.708 28.459C12.6056 28.2427 11.5031 27.9062 10.4726 27.4735C9.68172 27.137 8.91482 26.7284 8.17188 26.2717L8.31567 23.8201Z" fill="#A30C43"/>
<path d="M3.9536 22.1611C6.25432 23.9878 8.77073 25.1896 11.359 25.8386C13.9713 26.5116 16.6555 26.6078 19.2678 26.2232C21.8801 25.8146 24.4204 24.9252 26.6972 23.5071C28.9979 22.113 31.011 20.2142 32.6887 17.7865C32.7605 17.6904 32.8804 17.6664 32.9762 17.7385C33.0481 17.7865 33.0961 17.8827 33.0721 17.9548C32.5209 20.9353 30.6995 23.6994 28.3269 25.7184C25.9063 27.7615 22.8866 29.0835 19.7711 29.5642C16.6555 30.0449 13.3722 29.6844 10.4723 28.4585C7.5964 27.2327 5.05602 25.1175 3.64204 22.4495C3.57014 22.3293 3.61807 22.2092 3.71394 22.1371C3.8098 22.113 3.8817 22.113 3.9536 22.1611Z" fill="#CC195B"/>
</svg>
