<svg width="49" height="48" viewBox="0 0 49 48" fill="none" xmlns="http://www.w3.org/2000/svg">
<circle cx="24.0879" cy="24" r="24" fill="white" fill-opacity="0.15"/>
<path d="M34.4158 19.3384C34.2782 18.0065 33.7736 16.8277 32.7799 15.8785C31.7402 14.8835 30.4713 14.4395 29.0647 14.363C26.6797 14.2405 21.0382 14.1486 19.0506 14.4701C16.7879 14.8375 15.3049 16.1694 14.6781 18.4045C14.1888 20.1344 14.2958 28.0798 14.571 29.7791C14.9533 32.106 16.3292 33.6063 18.6378 34.2034C20.2279 34.6167 28.071 34.5555 29.8444 34.2799C32.1683 33.8972 33.6666 32.5347 34.2782 30.223C34.7521 28.4625 34.5839 20.9458 34.4158 19.3384ZM32.5658 29.4729C32.2906 31.2487 31.1287 32.3357 29.3399 32.5347C27.704 32.7184 20.4266 32.8102 18.913 32.3816C17.4606 31.9836 16.635 30.9732 16.3904 29.5188C16.1611 28.1257 16.0999 21.1601 16.3904 19.2924C16.6503 17.5319 17.8275 16.445 19.601 16.246C21.3898 16.0469 27.8416 16.0163 29.554 16.2919C31.3122 16.5674 32.4129 17.7462 32.6117 19.5221C32.7799 21.1754 32.8257 27.6817 32.5658 29.4729ZM24.4781 19.2006C21.6191 19.2006 19.2952 21.5275 19.28 24.3903C19.28 27.2531 21.6038 29.5801 24.4628 29.5954C27.3218 29.5954 29.6457 27.2684 29.661 24.4056C29.661 21.5275 27.3371 19.2006 24.4781 19.2006ZM24.4322 27.743C22.5823 27.7277 21.084 26.2121 21.1146 24.3597C21.1299 22.5073 22.6435 21.007 24.4934 21.0377C26.3433 21.053 27.8416 22.5686 27.811 24.4209C27.811 26.2733 26.2822 27.7583 24.4322 27.743ZM31.0828 19.0016C31.0828 19.6752 30.5324 20.211 29.8597 20.211C29.187 20.211 28.6519 19.6599 28.6519 18.9863C28.6519 18.3127 29.2023 17.7768 29.875 17.7768C30.5324 17.7768 31.0828 18.328 31.0828 19.0016Z" fill="white"/>
</svg>
