<svg width="51" height="48" viewBox="0 0 51 48" fill="none" xmlns="http://www.w3.org/2000/svg">
<ellipse cx="25.0435" cy="24" rx="25.0435" ry="24" fill="white" fill-opacity="0.15"/>
<path d="M14.5711 18.6582H18.774V31.625H14.5711V18.6582ZM16.6802 12.2188C18.0251 12.2188 19.1103 13.2602 19.1103 14.551C19.1103 15.8418 18.0251 16.8833 16.6802 16.8833C15.3353 16.8833 14.2502 15.8418 14.2502 14.551C14.2349 13.2602 15.3353 12.2188 16.6802 12.2188Z" fill="white"/>
<path d="M21.4254 18.6606H25.445V20.4355H25.5061C26.0716 19.4087 27.4318 18.3379 29.4798 18.3379C33.7286 18.3379 34.508 21.0222 34.508 24.5133V31.6274H30.3203V25.32C30.3203 23.8092 30.2898 21.8876 28.1348 21.8876C25.9493 21.8876 25.6131 23.5305 25.6131 25.2174V31.6274H21.4102V18.6606H21.4254Z" fill="white"/>
</svg>
