<svg width="24" height="24" viewBox="0 0 24 24" fill="none" xmlns="http://www.w3.org/2000/svg">
<path d="M8.49321 6.00042L6.61321 14.0538C6.35988 15.0938 6.10655 16.1471 5.87988 17.1871L5.83988 17.3604C5.74655 17.7738 5.63988 18.2138 5.61321 18.6671C4.71988 18.1471 3.81321 17.6404 2.91988 17.1204C2.33321 16.7871 1.95988 15.9738 2.15988 15.3338C2.31988 14.8271 2.59988 14.3871 2.85321 13.9338C3.57321 12.6804 4.30655 11.4004 5.01321 10.1337C5.70655 8.93375 6.38655 7.74708 7.06655 6.54708C7.55988 5.68042 8.03988 4.81375 8.54655 3.94708C8.77321 3.56042 9.11988 3.30708 9.53321 3.20042C10.8532 2.82708 12.1865 2.45375 13.5065 2.09375C13.3865 2.16042 13.2799 2.24042 13.1599 2.30708C11.9599 3.06708 10.7332 3.82708 9.53321 4.57375C8.98655 4.92042 8.63988 5.40042 8.49321 6.00042Z" fill="#CB1B5B"/>
<path d="M21.4535 7.87961C20.9868 7.07961 20.4802 6.30627 19.9868 5.53294C19.3068 4.43961 18.6268 3.34627 17.9602 2.25294C17.4802 1.49294 16.4535 1.10627 15.6135 1.61294C14.9202 2.02627 14.2135 2.45294 13.5202 2.89294C12.3068 3.63961 11.0935 4.39961 9.89349 5.15961C9.52015 5.38627 9.25349 5.71961 9.16015 6.14627C8.92015 7.11961 8.69349 8.09294 8.46682 9.05294C8.16015 10.3996 7.84015 11.7329 7.53349 13.0796C7.20015 14.4929 6.85349 15.9196 6.53349 17.3463C6.42682 17.8529 6.29349 18.3729 6.28015 18.8929C6.25349 19.5596 6.85349 20.2396 7.50682 20.3863C8.64015 20.6663 9.78682 20.9329 10.9335 21.1996C12.5735 21.5863 14.2135 21.9863 15.8668 22.3596C16.2802 22.4663 16.7068 22.5329 17.0268 22.5996C17.9868 22.5463 18.5868 22.0796 18.8002 21.2663C18.9468 20.7329 19.0668 20.1996 19.2002 19.6529C19.4935 18.4263 19.7868 17.1863 20.0668 15.9463C20.5735 13.7863 21.0668 11.6263 21.5868 9.45294C21.7068 8.90627 21.7468 8.37294 21.4535 7.87961ZM15.8802 5.03961C16.2002 5.03961 16.4268 5.27961 16.4268 5.58627C16.4268 5.89294 16.1735 6.11961 15.8535 6.11961C15.5468 6.10627 15.2935 5.83961 15.3068 5.53294C15.3202 5.26627 15.5868 5.02627 15.8802 5.03961ZM12.2002 9.15961C13.1735 9.15961 13.9468 9.95961 13.9335 10.9196C13.9335 11.8663 13.0802 12.6796 12.1868 12.6129C11.2802 12.6663 10.4135 11.8796 10.4535 10.8263C10.4935 9.82627 11.2668 9.15961 12.2002 9.15961ZM15.7735 18.3329C14.8268 18.3463 14.0268 17.6796 14.0002 16.5996C13.9868 15.6396 14.7468 14.8529 15.7202 14.8529C16.6668 14.8263 17.4668 15.5996 17.4802 16.5596C17.4935 17.4529 16.8402 18.3063 15.7735 18.3329ZM17.2535 12.3463C16.7068 12.6929 16.1602 13.0396 15.6135 13.3729C14.7468 13.9063 13.8802 14.4529 13.0135 14.9863C12.4268 15.3463 11.8402 15.7329 11.2402 16.0929C10.8935 16.2929 10.4002 16.1063 10.3868 15.4796C10.4535 15.4129 10.5335 15.2396 10.6668 15.1596C11.1335 14.8396 11.6268 14.5329 12.1068 14.2396C13.0668 13.6529 14.0135 13.0663 14.9602 12.4663C15.5335 12.1196 16.1068 11.7729 16.6802 11.4263C16.9868 11.2396 17.2935 11.3063 17.4535 11.5729C17.6268 11.8396 17.5468 12.1596 17.2535 12.3463Z" fill="#CB1B5B"/>
<path d="M16.3741 16.5733C16.3741 16.8933 16.0674 17.2266 15.7741 17.2266C15.4274 17.24 15.1074 16.9466 15.1074 16.6133C15.1074 16.2133 15.4008 15.96 15.7474 15.96C16.0941 15.96 16.3741 16.24 16.3741 16.5733Z" fill="#CB1B5B"/>
<path d="M12.8269 10.92C12.8269 11.24 12.5602 11.4933 12.2002 11.5067C11.8402 11.52 11.5602 11.24 11.5469 10.8667C11.5469 10.5867 11.8802 10.2533 12.1735 10.2533C12.5202 10.24 12.8269 10.5467 12.8269 10.92Z" fill="#CB1B5B"/>
</svg>
