<svg width="49" height="48" viewBox="0 0 49 48" fill="none" xmlns="http://www.w3.org/2000/svg">
<circle cx="24.0879" cy="24" r="24" fill="white" fill-opacity="0.15"/>
<path fill-rule="evenodd" clip-rule="evenodd" d="M19.7227 28.847C17.5531 28.7755 16.2064 27.2856 15.8448 26.0817C16.4433 26.189 17.0419 26.1652 17.6279 26.034C17.6404 26.034 17.6529 26.0221 17.6903 26.0102C16.5182 25.748 15.6079 25.152 14.9844 24.1865C14.573 23.5429 14.3735 22.8397 14.3735 22.0649C14.9595 22.3629 15.5705 22.5297 16.2314 22.5417C15.346 21.9338 14.76 21.1471 14.5231 20.122C14.2862 19.1089 14.4358 18.1434 14.972 17.2375C17.2289 19.7764 20.0844 21.1709 23.5633 21.3974C23.5383 21.2425 23.5134 21.0994 23.5009 20.9564C23.3887 20.0148 23.5757 19.1446 24.1119 18.358C24.7728 17.3687 25.7204 16.7488 26.9299 16.5581C28.3265 16.3436 29.5485 16.725 30.571 17.6666C30.6458 17.7262 30.6957 17.7501 30.7954 17.7262C31.6558 17.5474 32.4538 17.2495 33.2144 16.8323C33.2269 16.8204 33.2518 16.8084 33.2643 16.8084C33.2643 16.8084 33.2768 16.8084 33.2893 16.8084C32.9651 17.7382 32.3541 18.4533 31.5062 18.9778C32.3167 18.8943 33.0773 18.6917 33.8254 18.3818C33.8379 18.3937 33.8379 18.3937 33.8379 18.4056C33.6758 18.6083 33.5262 18.8109 33.3641 19.0016C32.9276 19.5261 32.4164 19.979 31.8553 20.3723C31.8054 20.4081 31.7805 20.4439 31.7929 20.4915C31.8179 21.0875 31.7929 21.6716 31.7181 22.2556C31.556 23.4952 31.1944 24.6752 30.6458 25.7957C30.0722 26.9638 29.3365 28.0127 28.3888 28.9305C26.8053 30.5038 24.885 31.505 22.6655 31.9818C21.9049 32.1368 21.1318 32.2202 20.3462 32.244C17.9396 32.3156 15.7201 31.7434 13.6876 30.5396C13.6627 30.5276 13.6378 30.5038 13.5879 30.48C15.0468 30.6349 16.4184 30.4561 17.7526 29.9317C18.4384 29.6695 19.0993 29.3119 19.7227 28.847Z" fill="white"/>
</svg>
